<?xml version="1.0" standalone="no"?>
<!DOCTYPE svg PUBLIC "-//W3C//DTD SVG 20010904//EN"
 "http://www.w3.org/TR/2001/REC-SVG-20010904/DTD/svg10.dtd">
<svg version="1.0" xmlns="http://www.w3.org/2000/svg"
 width="400.000000pt" height="400.000000pt" viewBox="0 0 400.000000 400.000000"
 preserveAspectRatio="xMidYMid meet">

<g transform="translate(0.000000,400.000000) scale(0.100000,-0.100000)"
fill="#000000" stroke="none">
<path d="M1625 3681 c-176 -45 -302 -120 -433 -261 -74 -79 -119 -201 -152
-410 -13 -85 -12 -334 1 -385 10 -38 15 -68 18 -110 1 -12 4 -15 10 -10 5 6
11 84 14 175 3 91 7 194 11 230 9 95 51 218 91 269 19 24 35 48 35 52 0 5 6 9
14 9 8 0 16 3 18 8 2 4 21 19 43 33 39 26 76 32 165 31 19 -1 38 4 42 11 5 8
43 12 111 13 58 1 109 4 115 8 6 3 24 -2 40 -11 27 -16 38 -16 107 -4 l77 13
132 -43 c72 -23 139 -50 149 -61 10 -10 21 -18 26 -18 14 0 61 -52 56 -61 -6
-8 24 -49 36 -49 3 0 5 9 5 20 -1 29 18 29 23 0 1 -14 6 -27 10 -30 11 -7 32
-72 26 -78 -3 -3 -5 0 -5 6 0 7 -11 12 -25 12 -31 0 -34 -29 -5 -37 15 -4 20
-14 20 -39 0 -18 -5 -36 -11 -40 -7 -4 -9 -22 -4 -53 4 -25 10 -73 14 -106 5
-33 9 -53 10 -45 1 13 2 13 11 0 17 -27 12 -43 -12 -37 -24 7 -58 -17 -58 -40
0 -11 -9 -13 -35 -9 -20 4 -35 2 -35 -4 0 -21 -18 -9 -30 19 -11 28 -40 50
-40 32 0 -5 -3 -16 -6 -25 -5 -12 0 -16 17 -16 17 0 20 -3 10 -9 -9 -6 -10
-11 -2 -15 16 -10 13 -26 -4 -21 -48 15 -48 15 -35 29 19 24 -21 56 -70 56
-73 0 -143 -21 -171 -51 -36 -39 -22 -43 134 -40 87 2 127 -1 127 -8 0 -6 -5
-11 -11 -11 -5 0 -7 -4 -4 -10 3 -5 15 -10 26 -10 19 0 49 -21 49 -35 0 -19
35 -36 78 -39 40 -3 49 -1 49 13 0 9 -5 19 -11 23 -7 5 -4 8 8 8 14 0 17 6 14
25 -4 17 -1 25 8 25 16 0 19 -36 4 -45 -13 -8 -13 -45 -1 -45 5 0 12 6 15 13
3 8 12 4 27 -13 l22 -25 -6 25 c-3 14 -9 36 -13 49 -5 16 -4 22 4 17 6 -3 13
2 15 11 3 10 6 0 7 -22 4 -49 5 -55 15 -79 5 -12 3 -21 -6 -27 -8 -5 -9 -9 -3
-9 7 0 11 -13 9 -32 -4 -45 -4 -45 -15 -28 -7 11 -10 12 -10 2 0 -7 7 -20 15
-28 8 -9 14 -27 14 -42 l-2 -27 -4 28 c-2 15 -10 27 -17 27 -10 0 -10 -14 2
-67 16 -79 6 -123 -28 -123 -11 0 -20 -5 -20 -11 0 -6 9 -9 20 -6 13 3 20 0
20 -9 0 -8 -9 -14 -19 -14 -23 0 -32 -12 -41 -54 -4 -20 -12 -30 -21 -29 -11
2 -16 -8 -18 -39 -2 -47 -20 -90 -21 -50 0 12 -4 22 -10 22 -12 0 -12 -10 0
-70 4 -25 5 -49 0 -55 -4 -5 -7 -25 -7 -43 0 -21 3 -28 9 -20 5 9 8 6 8 -9 0
-13 -4 -23 -10 -23 -5 0 -10 -11 -10 -25 0 -14 -3 -25 -7 -25 -5 0 -16 -18
-27 -39 -10 -22 -30 -52 -45 -68 -14 -16 -31 -40 -38 -54 -6 -15 -30 -35 -53
-47 l-41 -20 -10 26 -11 27 -24 -28 c-16 -19 -24 -23 -24 -13 0 27 -17 18 -29
-14 -5 -17 -15 -30 -20 -30 -6 0 -11 -7 -11 -15 0 -8 -6 -15 -13 -15 -8 0 -22
-9 -32 -20 -9 -10 -20 -19 -24 -18 -24 3 -41 -4 -41 -17 0 -9 -9 -15 -24 -15
-12 0 -36 -12 -51 -26 -15 -14 -34 -23 -42 -20 -11 4 -13 2 -9 -9 7 -20 -3
-45 -19 -45 -7 0 -15 7 -19 15 -10 28 -22 15 -21 -25 0 -32 2 -37 11 -25 15
20 25 19 17 -2 -6 -14 1 -15 68 -9 88 8 146 23 178 48 13 10 29 18 36 18 7 0
20 10 28 22 14 20 16 21 16 5 1 -10 5 -16 10 -12 5 3 30 9 55 14 41 8 45 6 48
-13 2 -11 9 -20 16 -18 15 3 16 -30 2 -44 -6 -6 -12 -24 -13 -41 -1 -22 -6
-29 -16 -25 -10 4 -13 0 -9 -16 4 -15 2 -22 -8 -22 -7 0 -11 -6 -8 -14 3 -7
-2 -16 -10 -19 -8 -3 -12 -14 -10 -24 3 -10 -4 -28 -15 -40 -12 -12 -21 -28
-21 -35 0 -9 -3 -9 -10 2 -9 14 -15 7 -11 -14 1 -4 -56 -66 -126 -136 -116
-117 -132 -130 -183 -144 -33 -9 -67 -27 -81 -42 -13 -14 -53 -46 -89 -70 -36
-24 -84 -58 -106 -75 -41 -31 -42 -31 -61 -12 -11 11 -27 30 -36 44 -10 13
-47 54 -83 91 -36 37 -86 93 -110 125 -43 55 -45 61 -43 118 2 102 38 240 71
277 15 17 36 49 45 70 9 21 20 38 25 38 28 0 -7 221 -47 300 -25 49 -28 51
-38 32 -32 -54 -163 -202 -192 -216 -18 -9 -109 -32 -201 -52 -93 -20 -191
-45 -219 -55 -110 -42 -205 -143 -271 -286 -42 -92 -125 -337 -158 -469 -22
-85 -86 -433 -86 -464 0 -7 698 -10 1965 -10 l1965 0 0 275 c0 151 -4 284 -9
297 -5 13 -16 57 -26 99 -20 95 -67 176 -115 200 -19 10 -69 22 -111 27 -69 9
-84 15 -150 61 -99 70 -144 82 -304 78 -150 -2 -169 4 -228 77 -50 60 -87 81
-198 111 -52 13 -127 39 -166 56 -81 35 -66 15 -162 223 -22 48 -60 116 -83
150 -48 70 -48 69 -13 227 17 76 34 127 52 154 15 22 26 45 25 51 -1 7 4 14
13 18 8 3 15 12 15 20 0 10 -6 13 -15 10 -19 -8 -19 19 -1 61 l13 30 17 -40
c9 -22 14 -51 11 -65 -4 -20 -3 -22 5 -9 11 20 51 280 44 291 -3 5 0 8 6 8 7
0 9 7 6 16 -3 9 -3 21 1 27 14 23 20 93 9 104 -4 4 -11 1 -16 -7 -8 -13 -10
-12 -10 3 0 9 6 17 13 17 6 1 1 10 -12 20 -22 19 -24 28 -26 148 -4 150 -23
396 -36 467 -15 81 -66 170 -134 233 -116 109 -305 216 -436 247 -88 20 -265
18 -354 -4z m795 -767 c0 -8 -4 -12 -10 -9 -5 3 -10 10 -10 16 0 5 5 9 10 9 6
0 10 -7 10 -16z m35 -314 c3 -5 -1 -10 -9 -10 -9 0 -16 5 -16 10 0 6 4 10 9
10 6 0 13 -4 16 -10z m131 -243 c3 -81 1 -99 -14 -117 -18 -22 -18 -22 -16 34
1 33 -2 56 -8 56 -15 0 -4 95 12 115 7 8 15 13 17 11 3 -2 7 -47 9 -99z m-9
-184 c-3 -10 -5 -4 -5 12 0 17 2 24 5 18 2 -7 2 -21 0 -30z m-793 -968 c3 -9
0 -15 -9 -15 -9 0 -12 6 -9 15 4 8 7 15 9 15 2 0 5 -7 9 -15z m685 -430 c-41
-122 -80 -227 -85 -222 -4 4 90 289 101 307 17 27 11 -2 -16 -85z m-1648 67
c-5 -10 -18 -25 -27 -33 -11 -9 -9 -2 6 19 26 35 36 42 21 14z m-70 -105 c-10
-9 -11 -8 -5 6 3 10 9 15 12 12 3 -3 0 -11 -7 -18z m-23 -42 c-6 -14 -13 -23
-15 -21 -5 5 15 46 22 46 3 0 -1 -11 -7 -25z m1580 -257 c-2 -6 -10 -14 -16
-16 -7 -2 -10 2 -6 12 7 18 28 22 22 4z"/>
<path d="M2571 2404 c0 -11 3 -14 6 -6 3 7 2 16 -1 19 -3 4 -6 -2 -5 -13z"/>
<path d="M1325 2680 c-3 -5 1 -10 9 -10 8 0 17 -9 21 -19 8 -27 26 -31 86 -22
28 5 60 6 70 4 28 -8 23 12 -8 32 -30 20 -167 32 -178 15z"/>
<path d="M1395 2524 c-57 -14 -142 -48 -152 -62 -24 -30 -15 -38 48 -40 38 -1
58 2 54 8 -4 6 -10 8 -15 5 -7 -5 -16 8 -19 30 -3 21 41 12 49 -10 9 -24 38
-36 75 -29 16 3 25 -1 28 -13 3 -13 5 -10 6 7 2 45 12 69 27 63 16 -6 19 -33
4 -33 -5 0 -10 -4 -10 -10 0 -5 11 -10 24 -10 13 0 27 -6 29 -12 4 -10 6 -10
6 0 1 6 7 12 15 12 28 0 25 16 -8 55 -30 34 -39 38 -87 41 -30 1 -63 1 -74 -2z
m8 -55 c3 -13 1 -19 -6 -16 -15 5 -22 37 -9 37 5 0 12 -9 15 -21z"/>
<path d="M1833 2498 c-37 -46 -38 -137 -3 -170 17 -16 19 -16 34 1 9 10 13 21
9 26 -5 4 2 2 15 -4 12 -6 22 -16 22 -21 0 -6 11 -10 25 -10 31 0 31 8 0 54
-22 32 -23 37 -8 35 10 -1 26 1 36 6 9 4 27 5 38 2 20 -5 20 -5 4 13 -16 17
-15 19 4 30 17 9 22 8 27 -5 3 -8 4 -22 0 -30 -3 -8 0 -15 7 -16 7 0 23 -3 37
-5 14 -2 31 -5 38 -6 6 -1 12 -5 12 -10 0 -4 19 -8 43 -8 31 0 46 -5 57 -20
14 -20 70 -29 70 -12 0 5 10 13 23 19 18 8 22 18 22 52 0 26 -5 41 -12 41 -7
0 -13 -10 -13 -22 0 -14 -3 -18 -8 -12 -4 7 -27 22 -52 35 -40 21 -58 23 -176
24 -112 0 -135 -3 -151 -17 -26 -24 -29 -23 -43 12 -13 31 -40 40 -57 18z
m260 -58 c3 -11 2 -20 -3 -20 -14 0 -32 29 -25 40 9 14 21 5 28 -20z m87 -10
c0 -5 -4 -10 -10 -10 -5 0 -10 5 -10 10 0 6 5 10 10 10 6 0 10 -4 10 -10z"/>
<path d="M2445 2445 c8 -37 25 -57 25 -29 0 10 -8 28 -17 39 -15 19 -15 19 -8
-10z"/>
<path d="M1930 2135 c0 -3 11 -27 25 -53 24 -45 25 -46 25 -17 0 31 -24 75
-41 75 -5 0 -9 -2 -9 -5z"/>
<path d="M1848 1989 c-31 -17 -19 -30 12 -14 17 9 30 18 30 20 0 8 -24 5 -42
-6z"/>
<path d="M1893 1953 c-31 -21 -32 -48 -1 -31 12 7 30 21 40 31 17 16 17 17 1
16 -10 0 -28 -7 -40 -16z"/>
<path d="M1835 1920 c4 -6 11 -8 16 -5 14 9 11 15 -7 15 -8 0 -12 -5 -9 -10z"/>
<path d="M1856 1888 c-16 -6 -44 -21 -63 -34 l-34 -23 38 -25 c32 -21 50 -25
113 -25 110 -1 146 -5 162 -19 8 -6 17 -9 21 -6 3 3 8 -3 11 -14 6 -18 44 -37
54 -27 15 14 -13 76 -51 113 -38 37 -51 43 -108 51 -35 5 -75 11 -89 14 -14 3
-38 0 -54 -5z"/>
<path d="M1577 1874 c-6 -7 -51 -12 -104 -13 -23 -1 -31 -5 -29 -18 2 -9 8
-19 14 -21 7 -2 12 -10 12 -18 0 -17 12 -18 27 -3 8 8 17 8 31 0 15 -8 27 -7
49 4 15 8 38 15 51 15 16 0 22 6 22 21 0 17 -5 20 -24 17 -17 -4 -23 -1 -19 9
5 13 -18 19 -30 7z"/>
<path d="M1384 1852 c-58 -18 -111 -101 -62 -97 11 1 24 9 30 18 5 10 13 15
18 12 11 -7 72 54 64 66 -6 10 -19 10 -50 1z"/>
<path d="M1420 1711 c0 -17 24 -25 76 -27 28 -1 66 -4 85 -8 19 -3 10 2 -22
13 -72 23 -139 34 -139 22z"/>
<path d="M1940 1699 c-36 -4 -101 -14 -144 -23 -48 -10 -97 -14 -125 -11 -34
5 -42 4 -31 -4 9 -7 56 -11 115 -10 99 2 99 2 108 -25 10 -31 27 -35 27 -5 0
11 5 17 10 14 6 -3 10 -15 10 -26 0 -35 32 -22 99 40 45 42 45 42 1 56 -3 0
-34 -2 -70 -6z"/>
<path d="M1675 1502 c-11 -11 -4 -18 20 -17 30 0 34 19 5 21 -10 1 -22 -1 -25
-4z"/>
<path d="M1311 1437 c-10 -13 -9 -21 3 -46 9 -16 16 -36 16 -43 0 -11 44 -60
116 -128 12 -11 28 -20 37 -20 9 0 19 -4 22 -10 3 -5 19 -10 35 -10 16 0 41
-5 55 -12 19 -9 28 -9 37 0 9 9 8 12 -5 12 -9 0 -17 3 -17 8 0 4 -12 8 -27 9
-15 0 -32 9 -39 18 -7 9 -18 14 -24 10 -7 -4 -7 1 2 14 11 18 10 22 -7 35 -11
8 -31 18 -44 21 -24 6 -71 48 -71 63 0 4 -18 27 -38 51 -33 37 -40 41 -51 28z"/>
</g>
</svg>
